# xmcd
#
# Track frame offsets:
#	150
#	12371
#	25245
#	40492
#	54864
#	66653
#	77495
#	91177
#	100165
#	116326
#	130263
#	141757
#	154619
#	172817
#	187845
#	199728
#	208408
#	222201
#	237590
#	250642
#	267681
#
# Disc length: 3744 seconds
#
# Revision: 1
# Processed by: cddbd v1.5.1PL0 Copyright (c) Steve Scherf et al.
# Submitted via: CDex 1.50Beta5
#
DISCID=250e9e15
DTITLE=ケムリ - ケムリ
DYEAR=2002
DGENRE=Alternative
TTITLE0=Rockin'
TTITLE1=P.M.A (Positive Mental Attitude)
TTITLE2=Prayer
TTITLE3=One Life, No Regret
TTITLE4=Confession
TTITLE5=Ohichyo
TTITLE6=Egotistic And Weak Fragment Of Creation
TTITLE7=Givin' Up
TTITLE8=Scream For My Dream
TTITLE9=Along The Longest Way...
TTITLE10=New Generation
TTITLE11=The Rhythm
TTITLE12=Workin' Dayz
TTITLE13=Kirisame
TTITLE14=Oneday
TTITLE15=Five O'clock At Night
TTITLE16=In The Perfect Silence
TTITLE17=Heart Beat
TTITLE18=Mangetsu No Yoru Ni Hana
TTITLE19=Smoke
TTITLE20=Ato-Ichinen 2002
EXTD=
EXTT0=
EXTT1=
EXTT2=
EXTT3=
EXTT4=
EXTT5=
EXTT6=
EXTT7=
EXTT8=
EXTT9=
EXTT10=
EXTT11=
EXTT12=
EXTT13=
EXTT14=
EXTT15=
EXTT16=
EXTT17=
EXTT18=
EXTT19=
EXTT20=
PLAYORDER=
